<?xml version="1.0" encoding="UTF-8" standalone="no"?>
<svg
   width="64"
   height="64"
   viewBox="0 0 64 64"
   fill="none"
   version="1.1"
   id="svg1"
   sodipodi:docname="logo.svg"
   inkscape:export-filename="../public/logo512.png"
   inkscape:export-xdpi="768"
   inkscape:export-ydpi="768"
   xmlns:inkscape="http://www.inkscape.org/namespaces/inkscape"
   xmlns:sodipodi="http://sodipodi.sourceforge.net/DTD/sodipodi-0.dtd"
   xmlns="http://www.w3.org/2000/svg"
   xmlns:svg="http://www.w3.org/2000/svg">
  <defs
     id="defs1" />
  <sodipodi:namedview
     id="namedview1"
     pagecolor="#505050"
     bordercolor="#eeeeee"
     borderopacity="1"
     inkscape:showpageshadow="0"
     inkscape:pageopacity="0"
     inkscape:pagecheckerboard="0"
     inkscape:deskcolor="#d1d1d1" />
  <path
     d="M 32,56 C 32,56 18,47.6 9.4,39 5.2,34.6 2,29.5 2,23.5 2,13.3 10.3,5 20.5,5 26.1,5 31,8.2 32,12.2 33,8.2 37.9,5 43.5,5 53.7,5 62,13.3 62,23.5 62,29.5 58.8,34.6 54.6,39 46,47.6 32,56 32,56 Z"
     stroke="#ff4757"
     stroke-width="3"
     fill="none"
     id="path1" />
  <polyline
     points="12,32 22,32 26,22 32,42 38,26 42,32 52,32"
     stroke="#ff4757"
     stroke-width="3"
     fill="none"
     stroke-linecap="round"
     stroke-linejoin="round"
     id="polyline1" />
</svg>
