<svg xmlns="http://www.w3.org/2000/svg" viewBox="0 0 500 500" width="500" height="500">
  <defs>
    <linearGradient id="heartGradient" x1="0%" y1="0%" x2="100%" y2="100%">
      <stop offset="0%" style="stop-color:#FF4E50;stop-opacity:1" />
      <stop offset="100%" style="stop-color:#FC913A;stop-opacity:1" />
    </linearGradient>
    
    <linearGradient id="pulseGradient" x1="0%" y1="0%" x2="100%" y2="100%">
      <stop offset="0%" style="stop-color:#3494E6;stop-opacity:1" />
      <stop offset="100%" style="stop-color:#EC6EAD;stop-opacity:1" />
    </linearGradient>
  </defs>
  
  <!-- Background Circle -->
  <circle 
    cx="250" 
    cy="250" 
    r="240" 
    fill="url(#heartGradient)"
  />
  
  <!-- Heart Shape -->
  <path 
    d="M250 150
       C200 100, 130 130, 130 200
       C130 270, 250 350, 250 350
       C250 350, 370 270, 370 200
       C370 130, 300 100, 250 150 Z" 
    fill="#FFFFFF"
  />
  
  <!-- Pulse Line -->
  <polyline 
    points="50,250 150,250 180,220 220,280 250,220 280,280 320,220 350,250 450,250" 
    fill="none" 
    stroke="url(#pulseGradient)" 
    stroke-width="20" 
    stroke-linecap="round"
  />
  
  <!-- Medical Cross in Background -->
  <path 
    d="M250 50 L250 450 M50 250 L450 250" 
    stroke="#FFFFFF" 
    stroke-width="10" 
    stroke-opacity="0.2"
  />
</svg>